<?xml version="1.0" standalone="no"?>
<!DOCTYPE svg PUBLIC "-//W3C//DTD SVG 20010904//EN"
 "http://www.w3.org/TR/2001/REC-SVG-20010904/DTD/svg10.dtd">
<svg version="1.0" xmlns="http://www.w3.org/2000/svg"
 width="301.000000pt" height="301.000000pt" viewBox="0 0 301.000000 301.000000"
 preserveAspectRatio="xMidYMid meet">

<g transform="translate(0.000000,301.000000) scale(0.100000,-0.100000)"
fill="#000000" stroke="none">
<path d="M1271 2589 c-449 -94 -797 -463 -866 -919 -89 -581 297 -1132 872
-1249 136 -28 310 -28 446 0 453 92 803 460 872 919 89 581 -297 1132 -872
1249 -134 28 -320 27 -452 0z m739 -437 l0 -79 -101 -7 c-270 -17 -480 -107
-655 -281 -169 -166 -258 -362 -271 -592 l-6 -103 -78 0 -79 0 0 79 c0 565
506 1054 1098 1060 l92 1 0 -78z m-2 -654 l2 -408 -85 0 -85 0 0 325 c0 253
-3 325 -12 325 -7 0 -38 -7 -68 -15 -201 -53 -377 -221 -434 -412 l-15 -53
240 0 239 0 0 -85 0 -85 -325 0 -325 0 0 65 c0 155 68 338 170 462 149 179
400 295 630 289 l65 -1 3 -407z m-1028 -583 l0 -56 -82 3 -83 3 -3 39 c-5 63
-2 66 88 66 l80 0 0 -55z m1025 0 l0 -50 -432 -3 -433 -2 0 55 0 55 433 -2
432 -3 0 -50z"/>
</g>
</svg>
