<?xml version="1.0" encoding="utf-8"?>
<!-- Generator: Adobe Illustrator 19.2.1, SVG Export Plug-In . SVG Version: 6.00 Build 0)  -->
<svg version="1.1" id="layer" xmlns="http://www.w3.org/2000/svg" xmlns:xlink="http://www.w3.org/1999/xlink" x="0px" y="0px"
	 viewBox="0 0 652 652" style="enable-background:new 0 0 652 652;" xml:space="preserve">
<style type="text/css">
	.st0{fill:#FFFFFF;}
	.st1{fill:#003E84;}
	.st2{fill:#FABE00;}
</style>
<path class="st0" d="M381.6,262.6H270.1c-4.4-17.5-3.3-35.9-2.8-41.6c3.8-0.7,16.2-3.2,31.6-9.6c10.8-4.5,22.8-10.5,27.2-12.8
	c3.3,1.8,12.6,6.6,26.8,12.8c14.3,6.2,27.1,8.8,32,9.6C385.4,225.3,386.9,242.3,381.6,262.6"/>
<path d="M25.8,416.2c-3.3,0-3.8-1.4-3.8-2.2c0-1.6,1.3-4,3.3-4c0.9,0,1.8,0.2,2.8,0.5l0.3,0.1c0.8,0.2,1.3,0.4,2,0.4
	c1,0,1.7-0.5,2.2-1.4c1.3-2.6,1.8-11,1.8-17.4v-25c0-8-0.4-8-3.8-8.3l-1.9-0.2l-0.2-0.1c-0.4-0.3-0.6-0.8-0.6-1.5
	c0-0.3,0.1-1.2,0.8-1.5l0.2-0.1l0.2,0c3.9,0.1,6.4,0.2,9.4,0.2c2.6,0,4.9-0.1,8-0.2l0.2,0l0.2,0.1c0.7,0.3,0.8,1.3,0.8,1.5
	c0,0.7-0.2,1.2-0.6,1.5l-0.1,0.1l-1.2,0.2c-3.5,0.5-3.7,0.8-3.7,8.3v24.5c0,4.9-0.2,10.4-1.7,14C37.6,412.1,32.1,416.2,25.8,416.2
	 M75.4,362.9c15.2,0,22.1,11.3,22.1,21.9c0,12.7-9.5,22.2-22.1,22.2c-14.9,0-22.6-10.9-22.6-21.6C52.8,372.6,62.5,362.9,75.4,362.9
	 M76.2,403c6.1,0,13.2-4.3,13.2-16.4c0-9.1-3.9-19.8-15-19.8c-6.2,0-13.5,4.3-13.5,16.6C60.9,390.7,64.2,403,76.2,403 M148.5,402.8
	l-0.1-0.1l-1.8-0.3c-2.7-0.3-2.7-0.3-2.7-6.6V374c0-6.4,0.2-6.4,2.7-6.6l1.4-0.1l0.3-0.1c0.5-0.3,0.7-0.9,0.7-1.6
	c0-0.3-0.1-1.3-0.9-1.6l-0.2-0.1l-0.3,0c-2.9,0.1-4.9,0.2-7.1,0.2c-2.3,0-4.3,0-7.3-0.2l-0.3,0l-0.2,0.1c-0.8,0.4-0.9,1.4-0.9,1.6
	c0,0.7,0.2,1.3,0.7,1.6l0.1,0.1l1.5,0.2c2.6,0.3,2.8,0.3,2.8,6.6v7c0,0.2,0,0.6,0,0.8c-0.3,0.1-1.3,0.1-2,0.1h-17.4
	c-0.7,0-1.6,0-2-0.1c0-0.2,0-0.6,0-0.8v-7c0-6.4,0.2-6.4,2.7-6.6l1.3-0.2l0.3-0.1c0.5-0.3,0.7-0.9,0.7-1.6c0-0.3-0.1-1.3-0.9-1.7
	l-0.2-0.1l-0.3,0c-2.7,0.1-4.8,0.2-7,0.2c-1.5,0-2.9,0-4.4-0.1l-0.3,0c-0.9,0-1.9-0.1-3-0.1h-0.2l-0.3,0.1c-0.7,0.4-0.9,1.3-0.9,1.6
	c0,0.7,0.2,1.3,0.7,1.6l0.1,0.1l1.9,0.2c2.2,0.2,2.6,0.2,2.6,6.6v21.9c0,6.1,0,6.1-2.7,6.6l-1.4,0.2l-0.2,0.2
	c-0.5,0.5-0.6,1.3-0.5,1.8c0.1,0.6,0.4,1.1,0.9,1.3l0.2,0.1h0.3c0.7,0,1.4,0,2.1-0.1c1.6-0.1,3.1-0.1,5-0.1c2.5,0,4.6,0.1,7.7,0.2
	l0.3,0l0.2-0.1c0.8-0.4,0.9-1.3,0.9-1.6c0.1-0.7-0.2-1.3-0.7-1.7l-0.1-0.1l-2.1-0.3c-2.5-0.3-2.8-0.3-2.8-6.6v-8.6
	c0-0.2,0-0.6,0-0.8c0.4-0.1,1.4-0.1,2-0.1h17.4c0.5,0,1.6,0,2,0.1c0,0.2,0,0.6,0,0.8v8.5l0,0.7c-0.1,5.6-0.1,5.6-2.8,5.9l-1.5,0.2
	l-0.2,0.2c-0.5,0.5-0.6,1.3-0.5,1.8c0.1,0.6,0.4,1.1,0.9,1.3l0.2,0.1l0.3,0c2.7-0.1,4.9-0.2,7.3-0.2c2.2,0,4.1,0,7.3,0.2l0.3,0
	l0.2-0.1c0.7-0.4,0.9-1.3,0.9-1.6C149.3,403.7,149,403.1,148.5,402.8 M201.5,365.3c-0.1-0.6-0.4-1.1-0.8-1.4l-0.3-0.2l-0.3,0
	c-2,0.1-3.6,0.2-6.2,0.2c-2.2,0-4.2-0.1-7.1-0.2l-0.2,0l-0.2,0.1c-0.5,0.2-0.9,0.7-1,1.3c-0.1,0.7,0.1,1.5,0.6,1.9l0.2,0.2l1.3,0.2
	c2.7,0.3,3,0.7,3,0.7c0.2,0.4,1.1,2.4,1.1,12v13v0.4c-2.4-2.5-5.1-5.5-8.6-9.5l-6.7-7.5c-2.3-2.6-8.4-9.5-9.4-12.1l-0.3-0.8
	l-0.8,0.1c-0.7,0.1-1.7,0.2-2.6,0.2c-1.1,0-4.3,0-6.8-0.2l-0.3,0l-0.2,0.1c-0.5,0.2-0.8,0.7-0.9,1.3c-0.1,0.7,0.1,1.4,0.5,1.8
	l0.2,0.2l1.4,0.2c1.5,0.2,2.6,0.6,3.1,1.1c1,1.1,1.1,2.1,1.1,3.7v18.1c0,2.6,0,9.7-0.7,11.5c-0.1,0.1-0.5,0.5-1.9,0.6l-2,0.2
	l-0.3,0.3c-0.4,0.4-0.6,1-0.5,1.6c0.1,0.6,0.3,1.1,0.8,1.4l0.3,0.2l0.4,0c2.3-0.1,3.9-0.2,6.3-0.2c2.1,0,4.3,0.1,7.1,0.2l0.4,0
	l0.3-0.2c0.4-0.3,0.7-0.8,0.8-1.3c0.1-0.6-0.1-1.2-0.4-1.7l-0.3-0.4l-2.3-0.2c-1.9-0.2-2.3-0.6-2.3-0.6c-0.7-1.3-1-7-1-12.1v-13.2
	c0-0.5,0-1.1,0-1.7c0.9,1.1,2.1,2.4,3.2,3.8l0.6,0.7c0.7,0.9,1.4,1.6,1.9,2.2l14.1,16c4.7,5.3,6.9,7.9,7.7,9.1l0.3,0.4h0.5
	c1,0,1.8-0.5,2.1-1.4l0.1-0.2l0-0.2c-0.1-0.7-0.2-3.1-0.2-10.5v-14.5l0-0.9c0-2.8,0-9.4,0.8-11.1c0.1-0.1,0.9-0.5,2.7-0.8l1.2-0.2
	l0.2-0.2C201.4,366.5,201.6,365.9,201.5,365.3 M225.7,382.2l-4.8-3c-3.1-2-4.7-4.2-4.7-6.6c0-2.6,1.1-5.7,6.2-5.7
	c5,0,6.5,3.1,7.3,6.1l0,0.1l0.2,0.2c0.3,0.4,0.8,0.6,1.3,0.6c0.6,0,1.4-0.2,1.8-0.8l0.2-0.3v-0.3c0-2.5-0.5-6.1-1.2-7.8l-0.2-0.7
	h-0.7c-0.4,0-1.3-0.2-1.8-0.3l-0.1,0c-1.7-0.5-4-0.8-5.9-0.8c-7.9,0-13.4,4.7-13.4,11.5c0,5.5,3.8,9.2,7,11.3l5.8,3.8
	c4.2,2.7,4.5,5.4,4.5,7.6c0,2.8-1.7,6-6.6,6c-5.8,0-8.3-4.5-9.5-8.4l-0.1-0.2c-0.3-0.4-0.8-0.7-1.4-0.7c-0.6,0-1.3,0.2-1.7,0.8
	l-0.2,0.3l0,0.3c0.1,2.9,0.9,7.4,1.8,8.9l0.1,0.3l0.3,0.1c1.5,0.9,4.9,2.4,10,2.4c8.3,0,14-4.9,14-12.3
	C233.8,389.6,231.1,385.5,225.7,382.2 M337.2,365.3c-0.1-0.6-0.4-1.1-0.8-1.4l-0.3-0.2l-0.3,0c-2,0.1-3.6,0.2-6.2,0.2
	c-2.2,0-4.2,0-7.1-0.2l-0.2,0l-0.2,0.1c-0.5,0.2-0.9,0.7-1,1.3c-0.1,0.7,0.1,1.5,0.6,1.9l0.2,0.2l1.4,0.2c2.5,0.3,2.9,0.6,3,0.7
	c0.2,0.4,1,2.4,1,12v13v0.4c-2.4-2.5-5-5.5-8.6-9.5l-5.9-6.6l-0.8-0.9c-2.3-2.6-8.4-9.5-9.4-12.1l-0.3-0.8l-0.8,0.1
	c-0.7,0.1-1.7,0.2-2.6,0.2c-1.1,0-4.3,0-6.8-0.2l-0.3,0l-0.2,0.1c-0.5,0.2-0.8,0.7-0.9,1.3c-0.1,0.7,0.1,1.4,0.5,1.8l0.2,0.2
	l1.4,0.2c1.4,0.2,2.6,0.6,3.1,1.1c1,1.1,1.1,2.1,1.1,3.7l0,18c0,2.7,0,9.8-0.7,11.6c-0.1,0.1-0.5,0.5-1.8,0.6l-2,0.2l-0.3,0.3
	c-0.4,0.4-0.6,1-0.5,1.6c0.1,0.6,0.3,1.1,0.8,1.4l0.3,0.2l0.3,0c2.3-0.1,3.9-0.2,6.3-0.2c2.2,0,4.3,0.1,7,0.2l0.4,0l0.3-0.2
	c0.4-0.3,0.7-0.7,0.8-1.3c0.1-0.6-0.1-1.2-0.4-1.7l-0.3-0.4l-2.3-0.2c-1.9-0.2-2.3-0.6-2.3-0.6c-0.7-1.3-1-7-1-12.1v-13.2
	c0-0.5,0-1.1,0-1.7c0.9,1.1,2.1,2.4,3.2,3.7c1,1.2,1.9,2.2,2.5,2.9l14.1,16c4.6,5.3,6.9,7.9,7.7,9.1l0.3,0.4h0.5
	c1.3,0,1.9-0.7,2.1-1.4l0.1-0.2l0-0.2c-0.1-0.7-0.2-3.1-0.2-10.5v-14.5v-0.8c0-2.6,0-9.4,0.8-11.1c0.1-0.1,0.9-0.5,2.7-0.8l1.2-0.2
	l0.2-0.2C337.1,366.5,337.3,365.9,337.2,365.3 M407.1,402.2c1,0,1.5,0.8,1.5,1.5c0,2.1-4,3-6.1,3c-4.2,0-7.3-2.6-10.4-5.1l-0.2-0.2
	c-0.2-0.2-0.4-0.3-0.6-0.5c-4.5,4-9.2,5.8-15,5.8c-10.1,0-17.8-7-17.8-16.4c0-6.8,3.3-11.6,9-13.5c-1.4-2.1-2.1-4.2-2.1-6.3
	c0-6.4,5.6-9.3,10.9-9.3c3.2,0,5.4,1.1,6.4,1.5c0.2-0.2,0.6-0.4,1.2-0.4c0.5,0,0.9,0.2,1.2,0.5c0.6,0.6,0.6,1.5,0.6,2.1l0,0.2
	l0.2,5.7c0,1-0.8,1.5-1.6,1.5c-1.1,0-1.6-1-1.7-1.5c0-0.1-0.1-0.1-0.1-0.2c-1.4-2.9-4.2-5.8-7.4-5.8c-2.3,0-4,1.6-4,3.9
	c0,3.2,7,11.4,20.9,24.3c0.7-1.3,0.9-2.9,0.9-4.9c0-3.8-1.8-4.2-3.3-4.6c-0.9-0.2-2.4-0.5-2.4-2c0-0.4,0.1-1.6,2-1.6
	c0.1,0,0.2,0,0.3,0h0.2c1.4,0,2.7,0.1,3.8,0.2c0.7,0,1.2,0.1,1.5,0.1c0.3,0,0.6,0,1-0.1c0.6-0.1,1.6-0.2,2.9-0.2
	c1.2,0,1.9,0.6,1.9,1.8c0,1.1-1,1.4-1.4,1.6c-0.7,0.3-1.1,0.4-1.2,1.5c-0.4,3.2-0.8,7.2-2.6,10.8c0.4,0.4,1,0.8,1.5,1.4
	c2.2,2,6.2,5.6,7.9,5.6c0.7,0,1.1-0.1,1.4-0.2C406.6,402.2,406.8,402.2,407.1,402.2 M378.4,401c3.3,0,6.7-1.1,9.3-2.9
	c-6.6-5.8-11-10.7-13.9-14c-1.8-2-3.7-4.2-4.3-4.2c-3.4,0-5.6,4.4-5.6,7.2C363.9,394.4,370.8,401,378.4,401 M513.5,402.8
	c0.4,0.3,0.7,0.8,0.7,1.5c0,0.5-0.2,1.3-0.7,1.7l-0.3,0.2l-0.4,0c-2.6-0.1-4.7-0.2-7.3-0.2c-2.5,0-4.6,0.1-6.2,0.2l-1,0l-0.2-0.1
	c-0.5-0.3-0.9-0.9-1-1.6c-0.1-0.7,0.2-1.3,0.7-1.7l0.2-0.2l2-0.2c0.7-0.1,1-0.2,1.2-0.3c-0.1-0.8-0.6-2.2-0.7-2.7l-2.7-8.3
	c-0.3-0.8-0.3-0.8-1.5-0.8h-9.2c-1.1,0-1.1,0-1.3,0.8l-2.1,6.4c-1.2,3.5-1.3,4.4-1.3,4.7c0,0,0,0.1,0,0.1c0,0,0.2,0,0.8,0.1l2.3,0.2
	l0.2,0.2c0.5,0.4,0.8,1.1,0.7,1.8c-0.1,0.7-0.5,1.2-1,1.5l-0.2,0.1l-0.3,0c-1.2-0.1-2.5-0.1-4.3-0.1l-1.9,0c-1.6,0-3.4,0.1-4.9,0.1
	l-1.1,0l-0.3-0.2c-0.6-0.4-0.8-1.1-0.8-1.6c0-0.6,0.2-1.2,0.6-1.6l0.2-0.2l2.3-0.2c1-0.1,2.1-0.4,2.8-2.3c0.3-0.8,0.7-1.7,1.1-2.7
	l0.2-0.5c1-2.4,2.3-5.8,4.1-10.3l6.2-16.4c0.7-1.9,1.1-3.1,1-3.8l-0.2-0.9l0.9-0.3c1.2-0.3,2.1-1.3,2.7-2l0.3-0.4h0.5
	c0.9,0,1.7,0.5,1.9,1.3c0.7,2.3,1.5,4.7,2.3,7.1l8.7,25.4c1.8,5.2,2.4,5.5,4.3,5.8l1.9,0.2L513.5,402.8 M495.5,386.3
	c0.6,0,0.9,0,1-0.1c0-0.2-0.1-0.5-0.3-1l-3.4-10.3c-0.2-0.7-0.5-1.5-0.7-2.1c-0.2,0.6-0.6,1.4-0.9,2.3l-3.8,10.6
	c0,0.1-0.1,0.4-0.2,0.6c0.2,0,0.6,0,0.9,0H495.5 M548.4,395.5l-0.2,0.2l-0.1,0.2c-1.2,3-2.7,5-3.6,5.5c-0.8,0.4-2.1,0.7-6.9,0.7
	c-4.8,0-5.5-0.7-5.9-1.1c-0.8-0.9-1-2.3-1-5.9V374c0-6.4,0.2-6.4,2.8-6.6l1.6-0.1l0.3-0.2c0.5-0.3,0.7-0.9,0.7-1.6
	c0-0.4-0.2-1.3-0.9-1.6l-0.2-0.1l-0.3,0c-2.9,0.1-5,0.2-7.4,0.2c-2.4,0-4.4-0.1-7.9-0.2l-0.3,0l-0.2,0.1c-0.7,0.4-0.9,1.3-0.9,1.7
	c0,0.7,0.2,1.3,0.7,1.6l0.1,0.1l1.9,0.2c2.9,0.2,3,0.2,3,6.6v21.9c0,6.3-0.1,6.3-2.7,6.6l-2.2,0.2l-0.3,0.3
	c-0.5,0.5-0.6,1.3-0.5,1.8c0.1,0.6,0.4,1.1,0.9,1.3l0.2,0.1l0.3,0c3.5-0.1,5.4-0.2,7.9-0.2h5.6c6.6,0,12.1,0.1,15.1,0.2l0.6,0
	l0.3-0.6c0.8-1.6,2.7-7.9,2.7-9C551.6,395.2,549.3,394.8,548.4,395.5 M590.4,396.3c-0.3-0.7-1.1-1.2-1.9-1.2c-0.4,0-0.8,0.1-1.1,0.3
	l-0.1,0.1l-0.2,0.3c-1.8,3.6-3.3,5.1-3.9,5.4c-1.2,0.6-3,0.8-7.3,0.8c-4.9,0-6.1-0.5-6.6-1.1c-0.7-0.8-0.9-2.8-0.9-5.6v-8.6
	c0-0.3,0-0.5,0-0.6c0.3,0,0.8,0,1,0h3.5c2.1,0,3.6,0,4.4,0.3c0.6,0.1,0.9,0.4,1.1,1.5l0.6,2.5l0.2,0.3c0.5,0.5,1.2,0.6,1.6,0.6
	c0.8,0,1.4-0.3,1.7-0.8l0.1-0.2v-0.3c0-0.6,0-1.3-0.1-2.3l0-0.2c-0.1-1-0.1-2.2-0.1-3.4c0-1.3,0.1-2.7,0.1-3.8
	c0-0.9,0.1-1.7,0.1-2.4V378l-0.1-0.3c-0.3-0.5-0.9-0.8-1.7-0.8c-0.3,0-1.1,0.1-1.6,0.6l-0.2,0.2l-0.5,2.7c-0.3,1.2-0.5,1.3-0.8,1.4
	c-0.5,0.2-2,0.3-4.8,0.3h-3.5c-0.3,0-0.7,0-1,0c0-0.1,0-0.3,0-0.7v-12.2c0-0.5,0-1.1,0-1.4c0.1,0,0.4,0,0.8,0h4.4
	c2.5,0,4.5,0.1,5.6,0.3c2.5,0.6,3,2.1,3.8,4.7l0.2,0.5l0.1,0.2c0.3,0.4,0.8,0.6,1.4,0.6c0.6,0,1.3-0.2,1.7-0.8l0.2-0.3l-0.1-1.4
	c-0.3-3.6-0.6-6.3-0.9-7.3l-0.3-0.9l-0.9,0.2c-0.6,0.2-4.7,0.2-8,0.2H565c-2.4,0-4.4,0-7.1-0.2l-0.3,0l-0.2,0.1
	c-0.8,0.4-0.9,1.4-0.9,1.6c0,0.7,0.2,1.3,0.7,1.6l0.1,0.1l1.3,0.2c2.6,0.3,2.8,0.3,2.8,6.6v21.9c0,6.3-0.3,6.3-2.8,6.6l-2.4,0.2
	l-0.3,0.3c-0.5,0.5-0.6,1.3-0.5,1.8c0.1,0.6,0.4,1.1,0.9,1.3l0.2,0.1l0.3,0c3.7-0.1,5.7-0.2,8.2-0.2h5.5c5.5,0,10.8,0.1,16.3,0.2
	l0.7,0l0.3-0.6c0.8-1.7,2.4-6.5,2.8-8.7l0.1-0.3L590.4,396.3z M613.9,382.2l-4.8-3c-3.1-2-4.7-4.3-4.7-6.6c0-2.6,1.1-5.7,6.2-5.7
	c4.9,0,6.4,2.9,7.3,6.1l0,0.1l0.2,0.3c0.3,0.4,0.8,0.6,1.3,0.6c0.6,0,1.4-0.2,1.8-0.8l0.2-0.3v-0.3c0-2.5-0.5-6.1-1.2-7.8l-0.3-0.7
	h-0.7c-0.4,0-1.3-0.2-1.7-0.3l-0.1,0c-1.7-0.5-3.9-0.8-5.9-0.8c-7.9,0-13.4,4.7-13.4,11.5c0,5.5,3.8,9.2,7,11.3l5.8,3.8
	c4,2.6,4.5,5.2,4.5,7.6c0,2.8-1.7,6-6.6,6c-5.8,0-8.3-4.5-9.5-8.4l-0.1-0.2c-0.3-0.4-0.8-0.7-1.4-0.7c-0.5,0-1.3,0.2-1.8,0.8
	l-0.2,0.3l0,0.3c0.1,2.9,0.9,7.4,1.8,8.9l0.1,0.3l0.3,0.1c1.2,0.7,4.7,2.4,10,2.4c8.4,0,14-4.9,14-12.3
	C622,389.6,619.4,385.5,613.9,382.2 M478.5,357.1c-0.3,0-0.6,0-0.9,0.1l-0.2,0c-1.4,0.1-3,0.1-4.9,0.1c-1.9,0-3.6-0.1-6.3-0.2
	l-0.8-0.1c-0.4,0.3-0.7,0.8-0.8,1.2c-0.1,0.6,0.1,1.2,0.5,1.7l0.2,0.2l2.3,0.2c0.7,0,1.8,0.2,1.8,0.9c0.1,0.6-0.1,1.3-0.4,2.2
	l-8.8,28.6l-9.3-27.9c-0.1-0.5-0.3-0.9-0.4-1.3c-0.2-0.7-0.5-1.6-0.5-1.8c0-0.3,0-0.5,1.6-0.6l1.9-0.2l0.2-0.2
	c0.4-0.5,0.6-1.3,0.4-1.9c-0.1-0.5-0.5-0.8-0.9-1l-0.1,0l-0.1,0c-2.5,0.1-5.4,0.2-7.2,0.2c-2.1,0-6.1-0.1-7.9-0.2l-0.2,0l-0.2,0.1
	c-0.5,0.2-0.8,0.7-0.9,1.3c-0.1,0.6,0.1,1.2,0.5,1.6l0.2,0.2l1.9,0.2c1.5,0.1,2.4,0.8,2.9,2.1c0.1,0.2,2.5,6.9,3,8.4l-7.3,21.3
	l-9.2-27.6c-0.2-0.5-0.3-1-0.5-1.4c-0.4-1-0.6-1.7-0.6-2.2c0-0.3,0.3-0.5,1.9-0.6l1.5-0.2l0.2-0.2c0.4-0.5,0.6-1.3,0.4-1.9
	c-0.1-0.5-0.5-0.8-0.9-1l-0.1,0l-0.1,0c-2.4,0.1-4.6,0.2-6.5,0.2c-2.1,0-6.8-0.1-8.7-0.2l-0.2,0l-0.2,0.1c-0.5,0.2-0.8,0.7-0.9,1.3
	c-0.1,0.6,0.1,1.2,0.5,1.6l0.2,0.2l1.7,0.2c2.1,0.2,2.7,0.9,3.3,2.5c0.2,0.5,14.8,41.9,14.9,42.3c0.1,0.3,0.5,0.8,1.4,0.8
	c0.8,0,1.2-0.5,1.3-0.9l10-28.1l9.9,28.1c0.1,0.4,0.6,0.9,1.4,0.9c0.7,0,1.2-0.5,1.3-0.8l13.8-41.8c1-2.9,1.9-2.9,3.8-3.1l1.6-0.2
	l0.2-0.2c0.4-0.5,0.6-1.2,0.5-1.8c-0.1-0.5-0.4-0.9-0.9-1.1L478.5,357.1z M264.3,363.3c15.2,0,22.1,11.3,22.1,21.9
	c0,12.7-9.5,22.2-22.1,22.2c-14.9,0-22.6-10.9-22.6-21.6C241.7,372.9,251.4,363.3,264.3,363.3 M265.1,403.4
	c6.1,0,13.2-4.3,13.2-16.4c0-9.1-3.9-19.8-15-19.8c-6.2,0-13.5,4.3-13.5,16.6C249.8,391.1,253,403.4,265.1,403.4 M124.3,448.9
	c0,1.9-0.1,3.3-0.4,4.1c-0.3,0.7-0.7,1.4-1.4,1.9c-1.3,1-2.9,1.6-4.9,1.6c-1.4,0-2.7-0.3-3.7-0.8c-1-0.5-1.8-1.2-2.3-2
	c-0.5-0.8-0.7-2.4-0.7-4.7v-15.1H106v15.1c0,2.1,0.1,3.7,0.4,4.7c0.3,1,0.7,1.9,1.1,2.6c0.4,0.7,1,1.4,1.7,1.9
	c2.1,1.8,4.9,2.7,8.4,2.7c3.4,0,6.2-0.9,8.3-2.8c0.6-0.6,1.2-1.2,1.7-1.9c0.4-0.7,0.8-1.6,1.1-2.6c0.3-1.1,0.5-2.6,0.5-4.6v-15.1
	h-4.8V448.9z M180.3,452.6l-16.4-18.9h-3.8v26.7h4.6v-18.7l16.2,18.7h4v-26.7h-4.6V452.6z M216.2,460.5h4.8v-26.7h-4.8V460.5z
	 M261.5,450.8l-7.3-17h-5l11.5,26.8h1.6l11.3-26.8h-4.9L261.5,450.8z M306.8,449.3h10.5v-4.4h-10.5v-6.6h10.8v-4.4h-15.7v26.7h16
	V456h-11.2V449.3z M365,454.5c0.9,1.4,1.6,2.5,2.1,3.2l2,2.8h-5.8l-1.3-1.9c0-0.1-0.1-0.2-0.2-0.3l-0.7-1l-2.4-3.9
	c-0.7-1-1.4-1.8-2-2.4c-0.6-0.6-1.1-1-1.6-1.2c-0.3-0.2-0.9-0.3-2.3-0.3h-0.4v11.1h-4.8v-26.7h7c2.7,0,4.9,0.7,6.5,2.1
	c1.6,1.4,2.5,3.3,2.5,5.6c0,1.6-0.4,3-1.2,4.2c-0.6,0.9-1.5,1.7-2.5,2.2c0.6,0.5,1.1,1,1.7,1.7C362.4,450.5,363.5,452.1,365,454.5
	 M352.5,444.9h0.8c2.2,0,3.2-0.2,3.6-0.4c0.6-0.3,1-0.7,1.4-1.2c0.3-0.6,0.5-1.2,0.5-1.9c0-0.7-0.2-1.3-0.5-1.9
	c-0.4-0.5-0.9-0.9-1.5-1.1c-0.7-0.2-1.9-0.4-3.7-0.4h-0.5V444.9z M406.4,445.7l-2.8-1.7c-1.2-0.7-2.1-1.4-2.6-2
	c-0.5-0.6-0.7-1.1-0.7-1.8c0-0.7,0.3-1.2,0.9-1.6c0.7-0.5,1.5-0.7,2.6-0.7c2,0,3.8,0.8,5.5,2.5l1,0.9v-5.8l-0.3-0.2
	c-1.9-1.3-4-1.9-6.2-1.9c-2.4,0-4.3,0.7-5.8,2c-1.5,1.4-2.3,3.2-2.3,5.3c0,1.5,0.4,2.8,1.2,3.9c0.8,1.1,2.1,2.2,3.9,3.3l2.8,1.7
	c2,1.3,3.1,2.6,3.1,3.9c0,0.8-0.3,1.4-0.9,1.9c-0.7,0.6-1.5,0.8-2.5,0.8c-2.4,0-4.5-1.2-6.4-3.5l-1-1.3v6.6l0.2,0.2
	c2.2,1.6,4.6,2.4,7.2,2.4c2.3,0,4.3-0.7,5.8-2.1c1.5-1.4,2.2-3.2,2.2-5.4C411.4,450.2,409.7,447.6,406.4,445.7 M441.2,460.5h4.8
	v-26.7h-4.8V460.5z M475.2,438.2h8.8v22.3h4.8v-22.3h8.9v-4.4h-22.5V438.2z M542.6,433.8l-6.6,8.4l-6.6-8.4h-5.9l10.1,12.8v13.9h4.9
	v-13.9l10.1-12.8H542.6z"/>
<path class="st1" d="M292.6,223.1c1.7,0.6,2.6,0.7,2.6,0.7c-2.8,1.1-2.4,1.6-4.7,2.8c-0.6,0.3-1.6,0.8-3.6,0.2c0,0,2.2,0.4,3.3-1.1
	c-0.7,0.4-1.3,0.6-2.4,0.4c-3.1-0.5-4,0.2-4,0.2s2-2.6,4.1-2.4c1.3,0.1,2,0.3,2.9,0.2c-0.5-0.8-2.4-0.6-2.4-0.6
	S290.1,222.2,292.6,223.1 M377.1,225.7c-1,1.9-3.4,1.4-5.3,1.6c0.2,0.6,2.7,0.6,2.7,0.9c0,0.8-3.9,1-4.9,1c0,0.5,3.2,0.3,2.2,0.9
	c-0.8,0.2-12.4,1.5-8.1,4.7c1.4,1,3.6,3.6,3.8,4c3.2,4.5-1.4,6.4-6.6,5.2c-5.9-1.4-6.1-4.4-10.3-3.8c0,0-1.6,9,3.4,9.2
	c3.6,0.1,3.7,0.5,6.9-0.2c0.9-0.2-0.9,5.9-4.4,9.8c-0.4,0.5-0.9,0.4-1.4,0.4c-1.3,0-3.3,0.1-4.8,2c-0.3,0.4,0.1,1,0.3,1.1
	c0.2,0.1-3.1,0.2-3.7-0.2c-0.3-0.2-0.3-0.8-0.2-1.2c0.1-0.6-0.8-0.4-1.4,0.1c-0.4,0.3-0.6,0.8-0.5,1c0.2,0.3-2.5-1.2-2.1-1.8
	c0.2-0.3,1.6-0.9,2-1.1c0.1-0.1,0.2-0.3-0.3-0.3c-0.5,0-1.8,0.3-2,0.4c-0.4,0.1,0.1-1.6,0.9-1.7c1.4-0.1,4.1,0.2,6.4-0.1
	c1.6-0.2,1.9-0.3,2.4-0.8c0.8-0.7,3-2.7,2.2-3.5c-0.7-0.7-2.4-0.9-4.2-0.3c-3.5,1.2-5,1.6-7.3,1.3c-8.1-1.1-3.2-7.8-2-8
	c-3.6,0.2-6.5,3.7-3.1,7.3c0.5,0.5-1.4,0.8-2.7,1.9c-1.6,1.5-2.5,3.5-2.7,3.6c-0.4,0.4-3.1-0.4-5,0.9c-1.1,0.8-1.2,1.2-1.3,1.6
	c-0.1,0.4,1,0.8-0.1,0.9c-1.1,0.1-3-0.1-3.2-0.2c-0.2-0.1-0.3-0.5-0.1-1.6c0.1-0.4-1-0.2-1.6,0.5c-0.4,0.4-0.2,0.6-0.2,0.7
	c0,0.4-2.7-1.3-2-1.8c0.6-0.5,2.5-1,2.2-1.2c-0.6-0.2-2.6,0.2-2.6,0.2s0.2-1.3,1-1.5c0.5-0.1,4.7,0.3,7.8-0.3
	c0.6-0.1,3.1-2.2,3.1-3.1c0-0.5-0.2-0.5-1.3-1c-6.7-2.8,1-7.9,1-7.9c-4.4-0.7-7.4,0.1-9.8,1c-2.4,0.9-7.5,3.5-15.5,3.2
	c-0.1,0.7-0.4,1.4-0.9,2.1c-0.7,1-1.7,1.7-2.7,1.9c-0.3,0.8-0.7,1.7-1,2.5c-0.1,0.2-0.5,0.9,0,1c1.9,0.4,3.1,0.1,3.4,0.2
	c0.7,0,0,1.7-0.3,1.9c-0.2,0.1-0.2-0.3-0.5-0.3c-0.6-0.2-1.8-0.1-1.9-0.1c-1.5,0-2.2,0.5-2.7,0.8c0,0-1,1-2,1.8
	c-0.3,0.3,0,0.9-0.4,0.9c-0.4,0-1.6-0.6-1.8-0.8c-0.1-0.1-0.3-0.3,0-0.6c0.4-0.4,1-0.9,0.7-0.9c-0.7,0-0.7,0.1-1.4,0.4
	c-1.4,0.5-0.7,0.8-1,0.9c-0.3,0.1-2.1-0.9-2.1-1.3c0-0.5,3.2-1,3-1.3c-0.1-0.2-0.4-0.2-1-0.2c-1.5,0-2.1,0.2-2.2,0.1
	c-0.4-0.2,0.6-1.5,1-1.6c0.5-0.2,5.1,0.4,5.3,0.1c0.7-1,1.7-2.8,2-4.1c-1.2-1-1.5-2.7-1-4.3c-2.4-0.8-5.8-3.1-6.7-7.9
	c-0.7-0.1-1.6-0.8-1.8-1.8c-0.9,0-5.4-0.3-6.6-0.6c-0.4-0.1-0.8,0-1,0.1c-0.2,0.1-0.4,0.3-0.5,0.5c-0.3,0.7-0.6,1.6-0.7,1.7
	c-0.2,0.2-1.7-0.1-1.8-0.4c-0.1-0.3,0.6-0.2,0.6-0.6c0.2-0.8,0.4-1,0.4-1.3c0.1-0.4,0.2-0.7,0-1c-0.3-0.4-0.3-0.5-0.7-0.7
	c-1.2-0.6-2.9-1.1-3-1.2c-0.2-0.1-0.8,0.4-0.9,0c0-0.2,0.1-1.2,0.6-1.4c0.4-0.2,1.6,0.3,2.6,0.7c0.3,0.1,0.5,0,0.6,0
	c0,0,0.2-0.2,0.1-0.6c-0.5-1-1.2-2.1-1.3-2.1c-0.2-0.2-0.8-0.1-0.8-0.3c0-0.1,0.6-1.2,1-1.2c0.2,0,1.3,1.7,2,2.7
	c0.2,0.3,0.5,0.2,0.5,0.1c0,0,0.2-0.2,0.2-0.5c0-0.8-0.2-1.5-0.3-1.7c-0.1-0.2-0.4-0.4-0.3-0.5c0.2-0.1,1.1-0.4,1.5,0
	c0.3,0.3,0.3,2.6,0.3,4c0,0.5,0.4,0.9,0.4,1c0,0,0.7,0.4,0.9,0.5c0.9,0.1,5-0.2,6.3-0.5c0.6-1,1.3-1.4,2.2-1.4c0.5-1,1.6-2.6,3-3.5
	c1.9-1.2,3.5-1.7,4.9-2.1c1.7-0.5,1.1-1.3,0.6-1.9c-0.2-0.3-1.4,0-2,0c-1.9,0.2-2.7,0.7-3.5,0.6c-1.1-0.1-1.8-0.9-1.6-1.1
	c0.2-0.2,1.1,0.1,2-0.1c0.5-0.1,0.6-0.7,1.6-0.9c0.7-0.1,1.1,0.1,1.7-0.2c1.3-0.6,1.4-1.9,0.7-2.6c-0.9-0.9-2.2-0.4-3.2-0.1
	c-2.5,0.7-1.9-1.2-3.8-0.7c-0.5,0.1-0.9,0.6-1.3,0.8c-0.2,0.1-0.3-0.2-0.3-0.2c0,0-0.4-2.7,3-3.3c1.7-0.3,1.8-0.2,2.1-0.6
	c0.8-0.9,1.3-1.2,2.8-1.5c1.5-0.4,3.8-0.3,6.1-0.1c0.4,0,1-1.6,0.5-3.3c-0.3-1,0.7-0.3,0.7-0.3s1.2,0.6,2.2,2.1c0,0,0.4-2.1-0.1-3.1
	c-0.1-0.2,0.9-0.7,1.1-0.4c0.1,0.2,2.2,2.7,2.4,4.5c0,0.5,0.1,1,0.2,1.4c0,0,0,0,0,0c0.2,1.2,0.5,2,0.6,2.1c0.1,0.1,0.4,0.9,0.7,1.9
	c0.2,3-0.8,6-0.8,6c0,0.5,0.5,0.3,1.1-0.3c0,0,0,0,0,0c0.2-0.2,0.4-0.4,0.6-0.6c3.2-4.5,8.7-5.3,13.8-6.2c8.2-1.6,15.3-4,21.7-9.6
	c0.2,2-0.5,3.8-2.1,5.6c0.5,0.2,3.5-1.9,4.1-4.3c0,0,1.1,4.2-1.6,6c-4.4,1.7-14.6,2.9-19.2,3.6c-4.1,0.6-7.7,1.1-10.7,2.7
	c-3.5,1.7-4.3,4.3-4.3,4.3s1.4-2.6,7.7-4.4c3.1-0.9,9.8-1.5,14.2-2c4.6-0.6,8.4-0.9,12.7-2.1c2.2-0.6,5.5-2,8.9-6
	c0.3,2.6-0.7,5.5-6.7,7.8c0.5,0.4,5.2-0.5,8.1-3.1c1.3,5-9.7,7.3-12.3,7.5c0.2,0.7,6.2,0.4,9.8-0.4c-0.5,0.6-3.8,5.6-14.2,4.5
	c0.1,0.6,3.8,1.1,7.6,1.1c-1.3,0.9-2.6,1.5-4.4,2c-0.3,0.1,4.6,0.9,4.7,3.5c1.6-0.2,4.7,0.2,7.8,2.1c4.7,2.7,8.8,3.4,8.2,1.3
	c-1.4-4.6-8.9-6.4-2.9-11.6C370,223.6,374.3,224.9,377.1,225.7 M303.5,219.4c0.1,0,0.2-0.6,0.1-0.6c-0.2-0.2-0.5-0.4-0.9-0.5
	c-0.9-0.3-2.1,0.2-2.6,0.2c-0.2,0-0.9,0.3-1.4,0.2c-0.7-0.1-0.5-0.3-1-0.3c-0.3,0-0.6,0.6-0.6,0.6c0.1,0,0-0.1,0.5,0.1
	c0.7,0.3,1.5,0.2,1.6,0.2c0.3,0,0.3,0.3,0.7,0.7c0.5,0.5,1.2,0.3,1.5,0.1c0.4-0.2,0.7-1,0.7-1C302.4,218.7,303.3,219.4,303.5,219.4
	 M324.1,239.9c2.7,1.3,4.8-0.5,4.1-0.6c0,0-4.3,0.3-6.4-2C320.9,236.3,322.1,238.9,324.1,239.9 M332,239c3.2,1.1,5.4-1.3,4.5-1.4
	c0,0-4.8,1.1-7.6-1.2C327.8,235.5,329.6,238.2,332,239 M339.9,236.9c3.8,0.4,5.6-2.7,4.7-2.5c0,0-5.1,2.3-8.6,0.4
	C334.5,234,337.1,236.6,339.9,236.9"/>
<path class="st1" d="M389.7,218.3l-0.3-1.9l-1.9-0.2c-0.1,0-15.3-2-32.6-9.5c-1.3-0.6-2.6-1.1-3.9-1.7c0.5-0.1,0.8-0.2,0.9-0.2
	c1.9-0.5,4-1.2,6.4-1.2c2,0,4.1,0.4,6.3,1.3c0.1,0.1,0.4,0.1,0.7,0.1l0.5,0l0.5-0.3c0.2-0.2,0.9-0.8,0.5-2c-0.4-1.3-1.4-2.3-2.4-3
	c0.3-0.5,0.5-1.3-0.1-2c-2-2.4-5.6-2.9-8.3-2.9c-1.5,0-2.8,0.2-3.7,0.3c2.7-4.5,2.9-5.7,1.8-7.1l-0.1-0.1c0,0-0.1-0.1-0.1-0.2
	l-0.3-0.3h0c-1.7-1.7-7.7-5.8-26.4-5.8H325c-18.7,0.1-24.7,4.1-26.4,5.8l-0.3,0.4c0,0.1-0.1,0.1-0.1,0.2l0,0
	c-1.1,1.4-0.9,2.6,1.8,7.1c-0.9-0.1-2.1-0.3-3.6-0.3c-2.7,0-6.3,0.5-8.3,2.9c-0.6,0.7-0.5,1.5-0.1,2c-1,0.7-2,1.7-2.4,3
	c-0.4,1.1,0.2,1.7,0.5,2l0.6,0.3h0.3c0.3,0,0.5-0.1,0.7-0.1c2.2-0.9,4.2-1.3,6.2-1.3c2.4,0,4.5,0.6,6.4,1.2c0,0,0.3,0.1,0.8,0.2
	c-1.4,0.6-2.7,1.2-4.1,1.7c-17.9,7.4-32.3,9.5-32.4,9.6l-2,0.3l-0.2,2c-0.2,1.4-3.9,34.3,7.5,59c10.5,22.8,25,36.3,35.2,43.7
	c11.3,8.1,19.9,10.6,20.2,10.7l0.8,0.2l0.8-0.3c1-0.3,10.3-3.7,21.8-11.8c10.8-7.7,25.5-21.4,33.8-42.7
	C394.5,246.4,389.8,218.6,389.7,218.3 M334.5,190.7c1.6-1.8,3.2-3.5,5-5.1c0.2-0.2,0.3-0.3,0.5-0.2c0.1,0,0.3,0,0.4,0.1
	c0.2,0,0.3,0.1,0.1,0.4c-1.6,1.5-3.2,3-4.6,4.5c-0.1,0.1-0.2,0.2,0.3,0.3c0.5,0.1,1.1,0.1,1.6,0.2c0.3,0,0.3,0,0.3-0.3
	c0.1-0.6,0.2-1.1,0.2-1.7c0-0.3,0.1-0.4,0.3-0.4c0.4-0.1,1.1-0.2,1.3-0.2c0.1,0,0.2,0.1,0.1,0.2c-0.1,0.8-0.2,1.5-0.4,2.3
	c-0.1,0.3,0,0.3,0.2,0.4c0.3,0,0.6,0.1,0.8,0.1c0.2,0.1,0.1,0.6-0.1,0.7c-0.3,0-0.6-0.1-0.8-0.1c-0.3,0-0.3,0-0.3,0.3
	c0,0.1,0,0.2-0.1,0.3c-0.2,1-0.1,1.1,0.4,1.2c0.1,0,0.2,0,0.2,0.1c0.1,0.1,0,0.4-0.1,0.4c-0.4-0.1-1.1-0.2-1.7-0.3
	c-0.8-0.1-1.6-0.2-2-0.2c-0.1,0-0.1-0.4,0-0.4c0.2,0,0.3,0,0.5,0c0.6,0,0.7-0.1,0.8-1.1c0-0.1,0-0.2,0.1-0.3c0-0.3,0-0.4-0.2-0.4
	c-1-0.1-2-0.2-2.9-0.3C334.4,191.1,334.4,190.9,334.5,190.7 M341.8,198.2c-0.4,0.5-0.9,1.3-1.2,2c-2.4-1.2-4.6-2.2-6.4-3.1
	C337.4,197.3,339.9,197.7,341.8,198.2 M327.6,192.6c0.2,0,0.3,0,0.5,0c0.6,0,0.7-0.2,0.7-1.1c0-1.3,0.1-2.7,0.1-4c0-0.8,0-1-0.6-1.1
	c-0.2,0-0.4-0.1-0.6-0.1c-0.1-0.1-0.1-0.4,0-0.4c0.6-0.1,1.2-0.2,1.7-0.3c0.6-0.1,1.1-0.3,1.2-0.3c0.1,0,0.2,0,0.2,0.1
	c0,0.3-0.1,0.8-0.1,1.5c-0.1,1.6-0.2,3.1-0.2,4.7c0,1,0,1.1,0.6,1.2c0.2,0,0.3,0,0.5,0.1c0.1,0.1,0.1,0.4-0.1,0.4
	c-0.4-0.1-1.2-0.1-2-0.1c-0.8,0-1.6,0-2,0C327.5,193,327.5,192.7,327.6,192.6 M321.3,185c2.1-0.1,3.3,1.3,3.3,3
	c0,1.5-0.6,2.8-1.7,3.8c-1,1-2.6,1.8-3.6,1.9c-0.1-0.1-0.2-0.3-0.1-0.4c2.3-0.8,3.5-2.9,3.5-5.1c0-0.9-0.4-2.7-1.5-2.6
	c-0.6,0-1,0.8-0.9,1.5c0.1,1,0.6,2,1.5,2.1c0.2,0,0.2,0,0.4,0c0.1,0,0.1,0.2,0.1,0.3c-0.2,0.2-0.7,0.4-1.3,0.5
	c-1.2,0.1-2.3-0.8-2.4-2C318.4,186.3,319.6,185.1,321.3,185 M311.1,187.2c0.5-0.2,1.1-0.4,1.7-0.6c0.6-0.2,1-0.6,1.1-0.6
	c0.1,0,0.2,0,0.2,0.1c0,0.3,0.1,0.9,0.2,1.5c0.2,1.6,0.4,3.1,0.6,4.7c0.1,1,0.2,1.1,0.8,1c0.2,0,0.3,0,0.5,0c0.1,0.1,0.1,0.4,0,0.4
	c-0.4,0-1.2,0.1-2,0.2c-0.8,0.1-1.5,0.3-2,0.4c-0.1,0-0.2-0.3-0.1-0.4c0.2,0,0.3-0.1,0.5-0.1c0.6-0.2,0.7-0.3,0.5-1.3
	c-0.2-1.3-0.4-2.6-0.6-4c-0.1-0.8-0.2-1-0.8-0.9c-0.2,0-0.4,0-0.6,0C311.1,187.5,311,187.2,311.1,187.2 M317.8,197
	c-1.9,0.9-4,2-6.4,3.1c-0.3-0.6-0.8-1.5-1.2-1.9C312.1,197.7,314.6,197.3,317.8,197 M291,301.2c-5.5-6.4-10.3-13.5-14.3-21.3
	l26.2,14.7L291,301.2z M325.9,326.5c-2.2-0.8-8.8-3.4-16.9-9.1l17.3-9.6l16.9,9.4C334.9,322.8,328.1,325.7,325.9,326.5 M326.2,281.5
	l-24.4-13.7h48.6L326.2,281.5z M361.4,301.4l-12.3-6.9l26.5-14.8C372,287.6,367.2,294.8,361.4,301.4 M381.6,262.6H270.1
	c-4.4-17.5-3.3-35.9-2.8-41.6c3.8-0.7,16.2-3.2,31.6-9.6c10.8-4.5,22.8-10.5,27.2-12.8c3.3,1.8,12.6,6.6,26.8,12.8
	c14.3,6.2,27.1,8.8,32,9.6C385.4,225.3,386.9,242.3,381.6,262.6"/>
<path class="st2" d="M291.1,301.2c-5.5-6.4-10.3-13.5-14.3-21.3l26.2,14.7L291.1,301.2z M325.9,326.5c2.2-0.9,9.1-3.7,17.3-9.3
	l-16.9-9.4l-17.3,9.6C317.1,323.1,323.7,325.8,325.9,326.5 M350.4,267.8h-48.6l24.4,13.7L350.4,267.8z M361.4,301.4
	c5.9-6.6,10.6-13.9,14.2-21.7l-26.5,14.8L361.4,301.4"/>
<path class="st0" d="M314.9,192.2c0.1,1,0.2,1.1,0.8,1c0.2,0,0.3,0,0.5,0c0.1,0.1,0.1,0.4,0,0.4c-0.4,0-1.2,0.1-2,0.2
	c-0.8,0.1-1.5,0.3-2,0.4c-0.1,0-0.2-0.3-0.1-0.4c0.2,0,0.3-0.1,0.5-0.1c0.6-0.2,0.7-0.3,0.5-1.3c-0.2-1.3-0.4-2.6-0.6-4
	c-0.1-0.8-0.2-1-0.8-1c-0.2,0-0.4,0-0.6,0c-0.1,0-0.2-0.3-0.1-0.4c0.5-0.2,1.1-0.4,1.7-0.6c0.6-0.3,1-0.6,1.1-0.6
	c0.1,0,0.2,0,0.2,0.1c0,0.3,0.1,0.8,0.2,1.5C314.5,189.1,314.7,190.7,314.9,192.2 M324.6,188.1c0-1.7-1.2-3.2-3.3-3
	c-1.7,0.1-2.9,1.3-2.8,2.9c0.1,1.2,1.2,2.1,2.4,2c0.5,0,1-0.2,1.3-0.5c0-0.1,0-0.2-0.1-0.3c-0.1,0-0.2,0-0.4,0
	c-0.9-0.1-1.4-1.1-1.5-2.1c-0.1-0.7,0.3-1.5,0.9-1.5c1.1-0.1,1.5,1.7,1.5,2.6c0.1,2.3-1.1,4.4-3.5,5.1c-0.1,0.1-0.1,0.3,0.1,0.4
	c1-0.1,2.6-1,3.6-1.9C324,190.8,324.7,189.5,324.6,188.1 M330.6,191.5c0.1-1.6,0.2-3.1,0.2-4.7c0-0.6,0.1-1.2,0.1-1.5
	c0-0.1-0.1-0.1-0.2-0.1c-0.1,0-0.6,0.2-1.2,0.3c-0.5,0.1-1.2,0.2-1.7,0.3c-0.1,0.1-0.1,0.4,0,0.4c0.2,0,0.4,0.1,0.6,0.1
	c0.6,0.1,0.6,0.3,0.6,1.1c0,1.3-0.1,2.7-0.1,4c0,1-0.1,1.1-0.7,1.1c-0.2,0-0.3,0-0.5,0c-0.1,0.1-0.1,0.4,0,0.4c0.4,0,1.2,0,2,0
	c0.8,0,1.5,0.1,2,0.1c0.1,0,0.2-0.3,0-0.4c-0.2,0-0.3,0-0.5-0.1C330.6,192.6,330.5,192.5,330.6,191.5 M337.7,191.9
	c0,0.1,0,0.2,0,0.3c-0.1,1-0.2,1.1-0.8,1c-0.2,0-0.3,0-0.5,0c-0.1,0.1-0.1,0.4,0,0.4c0.4,0,1.2,0.1,2,0.2c0.6,0.1,1.2,0.2,1.7,0.3
	c0.1,0,0.2-0.3,0.1-0.4c-0.1,0-0.2-0.1-0.3-0.1c-0.5-0.1-0.6-0.3-0.4-1.2c0-0.1,0-0.2,0.1-0.3c0.1-0.3,0.1-0.4,0.3-0.3
	c0.3,0,0.6,0.1,0.8,0.1c0.2-0.1,0.3-0.5,0.1-0.7c-0.3,0-0.6-0.1-0.8-0.1c-0.3,0-0.3-0.1-0.2-0.4c0.1-0.8,0.2-1.5,0.4-2.3
	c0-0.1,0-0.2-0.1-0.2c-0.2,0-1,0.1-1.3,0.2c-0.2,0-0.3,0.1-0.4,0.4c-0.1,0.6-0.2,1.1-0.2,1.7c0,0.3-0.1,0.4-0.3,0.3
	c-0.5-0.1-1-0.1-1.6-0.2c-0.4,0-0.4-0.1-0.3-0.3c1.5-1.5,3-3.1,4.6-4.5c0.2-0.2,0.1-0.3-0.1-0.4c-0.1,0-0.3,0-0.4-0.1
	c-0.2,0-0.3,0.1-0.5,0.2c-1.8,1.7-3.4,3.4-5,5.1c-0.1,0.2,0,0.3,0.1,0.4c1,0.1,2,0.2,2.9,0.3C337.8,191.5,337.8,191.6,337.7,191.9"
	/>
</svg>
